<?xml version="1.0" encoding="UTF-8"?>
<svg xmlns="http://www.w3.org/2000/svg" xmlns:xlink="http://www.w3.org/1999/xlink" version="1.1" aria-hidden="true">
  <symbol xmlns="http://www.w3.org/2000/svg" id="money" viewBox="0 0 30 30" fill="none">
     <path
       d="M24 12.3333V18.6667C24 19.7778 23.3394 22 20.6972 22H11.2844M7.3211 8C6.88073 8 6 8.26667 6 9.33333V17.5C6 18.5667 6.88073 18.8333 7.3211 18.8333H19.5413C19.9817 18.8333 20.8624 18.5667 20.8624 17.5V9.33333C20.8624 8.26667 19.9817 8 19.5413 8H7.3211ZM15.7431 13.3333C15.7431 14.622 14.708 15.6667 13.4312 15.6667C12.1544 15.6667 11.1193 14.622 11.1193 13.3333C11.1193 12.0447 12.1544 11 13.4312 11C14.708 11 15.7431 12.0447 15.7431 13.3333Z"
       stroke="currentColor" stroke-width="1.5" stroke-linecap="round">
     </path>
   </symbol>

   <symbol xmlns="http://www.w3.org/2000/svg" id="stonks" fill="none" viewBox="0 0 30 30">
     <path fill="currentColor" d="M6.75 7a.75.75 0 0 0-1.5 0h1.5ZM23.3 24.75a.75.75 0 0 0 0-1.5v1.5ZM9.73 17.72a.75.75 0 0 0 1.07 1.06l-1.07-1.06Zm3.64-2.6.53.54-.53-.53Zm3.83 1.25-.54-.53.54.53ZM25 8.39h.75a.75.75 0 0 0-.75-.75v.75Zm-.75 5.2a.75.75 0 1 0 1.5 0h-1.5Zm-4.34-5.95a.75.75 0 0 0 0 1.5v-1.5ZM5.25 7v16.3h1.5V7h-1.5Zm0 16.3c0 .24.06.57.27.87.24.34.64.58 1.16.58v-1.5h-.01l.02.01.06.05s0 .01 0 0v-.01h-1.5Zm1.43 1.45H23.3v-1.5H6.68v1.5Zm4.12-5.97 3.1-3.12-1.06-1.06-3.1 3.12 1.06 1.06Zm3.2-3.13c.28.3.59.59.84.81l.32.3a19.62 19.62 0 0 1 .13.12l.01.01 1.08-1.05-.53-.48c-.24-.22-.53-.5-.78-.76l-1.08 1.05Zm1.3 1.24c.2.2.54.44.98.51.48.08 1.01-.06 1.45-.5l-1.07-1.06a.28.28 0 0 1-.1.08h-.04a.33.33 0 0 1-.15-.08L15.3 16.9Zm2.43 0 7.8-7.98-1.07-1.05-7.8 7.98 1.07 1.05Zm6.52-8.5v5.2h1.5V8.4h-1.5Zm.75-.75h-5.09v1.5H25v-1.5Zm-11.1 8.01a.58.58 0 0 1 .08-.07c.02-.01.02 0 0 0a.17.17 0 0 1-.08 0c-.01-.01.02 0 .1.07l1.07-1.05c-.42-.42-.91-.6-1.42-.49-.42.1-.7.38-.82.5l1.07 1.04Z"/>
   </symbol>

   <symbol xmlns="http://www.w3.org/2000/svg" id="favorite" viewBox="0 0 30 30" fill="none">
     <path d="M9.53379 18.014L8.67934 22.9738C8.67934 23.4869 8.67934 24 9.53379 24C9.83874 24 13.6351 21.7766 13.9769 21.6056C14.7972 21.1951 15.6858 21.4346 16.0276 21.6056C16.3694 21.7766 20.1657 24 20.4707 24C21.3251 24 21.3251 23.4869 21.3251 22.9738L20.4707 18.014C20.4707 17.8429 20.2998 17.3299 20.8125 16.8168L24.572 13.0541C24.9708 12.598 25.4265 11.8569 24.2302 11.6859L18.7572 10.8307C18.0737 10.6597 17.7319 9.97559 17.561 9.63354L15.6812 5.52883C15.1344 4.57107 14.542 5.12976 14.3141 5.52883L12.2635 9.63354C12.0926 9.97559 11.9217 10.6597 11.2381 10.8307L5.76975 11.6859C4.57353 11.8569 5.02923 12.598 5.42798 13.0541L9.18754 16.8168C9.7002 17.3299 9.53379 17.8429 9.53379 18.014Z" stroke="currentColor" stroke-width="1.5"></path>
   </symbol>

   <symbol xmlns="http://www.w3.org/2000/svg" id="rounded-arrow-up" viewBox="0 0 23 23" fill="none">
     <path fill-rule="evenodd" clip-rule="evenodd" d="M11.3788 22.0112C17.4878 22.0112 22.4401 17.0864 22.4401 11.0112C22.4401 4.93611 17.4878 0.0112457 11.3788 0.0112457C5.26987 0.0112457 0.317566 4.93611 0.317566 11.0112C0.317566 17.0864 5.26987 22.0112 11.3788 22.0112ZM14.8323 11.0769C15.1465 11.3894 15.6558 11.3894 15.97 11.0769C16.2841 10.7645 16.2841 10.258 15.97 9.94556L11.9477 5.94556C11.6335 5.63314 11.1242 5.63314 10.81 5.94556L6.78773 9.94556C6.47357 10.258 6.47357 10.7645 6.78773 11.0769C7.10189 11.3894 7.61124 11.3894 7.9254 11.0769L10.5744 8.44262V16.0112C10.5744 16.4531 10.9346 16.8112 11.3788 16.8112C11.8231 16.8112 12.1833 16.4531 12.1833 16.0112V8.44262L14.8323 11.0769Z" fill="currentColor"></path>
   </symbol>

   <symbol xmlns="http://www.w3.org/2000/svg" id="link-right" viewBox="0 0 26 26" fill="none">
     <path d="M14.152 16.4142V20.6819C14.152 20.8241 14.2349 21.0233 14.5665 20.6819L21.6132 13.4268C21.7514 13.2845 21.9448 12.9146 21.6132 12.5732L14.5665 5.31814C14.4283 5.17589 14.152 4.97673 14.152 5.31814V9.58592C14.152 9.72817 14.152 10.0127 13.7375 10.0127C12.9085 10.0127 4.2037 11.0796 4.2037 18.5481C4.2037 18.7863 4.41096 18.7863 4.61822 18.5481C5.7917 17.1995 10.5872 15.9875 13.7375 15.9875C13.8756 15.9874 14.152 16.0727 14.152 16.4142Z" fill="currentColor"></path>
   </symbol>

   <symbol xmlns="http://www.w3.org/2000/svg" id="right-tick" viewBox="0 0 7 12" fill="none">
     <path d="M1 1L6 6L1 11" stroke="#B0B9C2" stroke-width="2" stroke-linecap="round" stroke-linejoin="round"></path>
   </symbol>

   <symbol xmlns="http://www.w3.org/2000/svg" id="lightning-filled" viewBox="0 0 9 12" fill="none">
     <path d="M2.96982 11.3841L8.10233 7.0252C8.14502 6.98895 8.1827 6.9472 8.21441 6.90104L8.25931 6.83567C8.4043 6.62459 8.4043 6.346 8.25931 6.13492C8.19858 6.04649 8.1159 5.97537 8.01939 5.92854L5.62857 4.76829C5.5451 4.72778 5.47701 4.6613 5.43451 4.57881C5.37101 4.45554 5.37101 4.30917 5.43451 4.1859L5.49997 4.05882L6.78508 1.25238C6.81686 1.18298 6.83331 1.10755 6.83331 1.03122V0.987566C6.83331 0.718291 6.61502 0.5 6.34574 0.5C6.23012 0.5 6.11826 0.54109 6.03013 0.615936L0.897616 4.9748C0.854932 5.01105 0.817245 5.0528 0.78554 5.09896L0.740639 5.16433C0.59565 5.37541 0.59565 5.654 0.740639 5.86509C0.801374 5.95351 0.884051 6.02463 0.980559 6.07146L3.37137 7.23171C3.45485 7.27222 3.52294 7.33871 3.56544 7.42119C3.62894 7.54446 3.62894 7.69083 3.56544 7.8141L3.49997 7.94118L2.21487 10.7476C2.18309 10.817 2.16664 10.8925 2.16664 10.9688V11.0124C2.16664 11.2817 2.38493 11.5 2.65421 11.5C2.76983 11.5 2.88169 11.4589 2.96982 11.3841Z" fill="currentColor"></path>
   </symbol>

   <symbol xmlns="http://www.w3.org/2000/svg" id="group" viewBox="0 0 21 20" fill="none">
     <path d="M8.02958 11.3131C9.61663 11.2548 12.7378 11.7683 12.5262 14.2895C12.4557 14.7098 12.1442 14.8148 11.9972 14.8148H8.02958L4.06196 14.8148C3.91501 14.8148 3.60348 14.7098 3.53294 14.2896C3.32134 11.7683 6.44253 11.2548 8.02958 11.3131Z" fill="currentColor"></path>
     <path d="M10.4983 7.63636C10.4983 8.99012 9.39303 10.0875 8.02958 10.0875C6.66613 10.0875 5.56083 8.99012 5.56083 7.63636C5.56083 6.28261 6.66613 5.18518 8.02958 5.18518C9.39303 5.18518 10.4983 6.28261 10.4983 7.63636Z" fill="currentColor"></path>
     <path d="M13.0512 11.4821C14.6382 11.4237 17.636 12.0012 17.636 13.9671C17.636 14.1309 17.537 14.4585 17.141 14.4585H14.1711V13.9671C14.1711 12.7384 13.3951 11.778 13.0512 11.4821Z" fill="currentColor"></path>
     <path d="M15.4085 8.43808C15.4085 9.45594 14.5775 10.2811 13.5523 10.2811C12.5272 10.2811 11.6961 9.45594 11.6961 8.43808C11.6961 7.42022 12.5272 6.59508 13.5523 6.59508C14.5775 6.59508 15.4085 7.42022 15.4085 8.43808Z" fill="currentColor"></path>
   </symbol>

   <symbol xmlns="http://www.w3.org/2000/svg" id="eye" viewBox="0 0 21 20" fill="none">
     <path fill-rule="evenodd" clip-rule="evenodd" d="M10.6667 5C6.4 5 3.5 8.16667 3.5 9.83333C3.5 11.5 6.4 14.6667 10.6667 14.6667C14.9333 14.6667 17.8333 11.3333 17.8333 9.83333C17.8333 8.16667 14.9333 5 10.6667 5ZM10.7083 13.25C12.5722 13.25 14.0833 11.739 14.0833 9.875C14.0833 8.01104 12.5722 6.5 10.7083 6.5C8.84429 6.5 7.33325 8.01104 7.33325 9.875C7.33325 11.739 8.84429 13.25 10.7083 13.25Z" fill="currentColor"></path>
     <path d="M12.8333 9.875C12.8333 11.0486 11.8819 12 10.7083 12C9.53465 12 8.58325 11.0486 8.58325 9.875C8.58325 8.70139 9.53465 7.75 10.7083 7.75C11.8819 7.75 12.8333 8.70139 12.8333 9.875Z" fill="currentColor"></path>
   </symbol>

   <symbol xmlns="http://www.w3.org/2000/svg" id="question-mark" viewBox="0 0 27 27" fill="none">
     <path fill-rule="evenodd" clip-rule="evenodd" d="M23 13.5C23 18.7467 18.7467 23 13.5 23C8.25329 23 4 18.7467 4 13.5C4 8.25329 8.25329 4 13.5 4C18.7467 4 23 8.25329 23 13.5ZM13.3304 10.2768C12.3804 10.2768 12.1429 11.0685 12.1429 11.4643H10.4464C10.4464 10.503 11.0232 8.58036 13.3304 8.58036C15.6375 8.58036 16.2143 10.503 16.2143 11.4643C16.2143 13.0929 14.8571 14.4048 14.1786 14.8571V15.875H12.4821V14.1786C13.1607 13.5565 14.5179 12.1429 14.5179 11.4643C14.5179 11.0685 14.2804 10.2768 13.3304 10.2768ZM13.3304 18.5893C13.7988 18.5893 14.1786 18.2095 14.1786 17.7411C14.1786 17.2726 13.7988 16.8929 13.3304 16.8929C12.8619 16.8929 12.4821 17.2726 12.4821 17.7411C12.4821 18.2095 12.8619 18.5893 13.3304 18.5893Z" fill="currentColor"></path>
   </symbol>

   <symbol xmlns="http://www.w3.org/2000/svg" id="two-way-arrows" viewBox="0 0 48 48" fill="none">
     <path fill-rule="evenodd" clip-rule="evenodd" d="M42.8571 24C42.8571 34.4145 34.4145 42.8571 24 42.8571C13.5855 42.8571 5.14286 34.4145 5.14286 24C5.14286 13.5855 13.5855 5.14285 24 5.14285C34.4145 5.14285 42.8571 13.5855 42.8571 24ZM11.0303 25.6017C11.5658 25.0661 12.4342 25.0661 12.9697 25.6017L15.7714 28.4034V16.2857C15.7714 15.5283 16.3854 14.9143 17.1429 14.9143C17.9003 14.9143 18.5143 15.5283 18.5143 16.2857V28.4034L21.316 25.6017C21.8515 25.0661 22.7199 25.0661 23.2555 25.6017C23.791 26.1373 23.791 27.0056 23.2555 27.5412L18.1126 32.684C17.577 33.2196 16.7087 33.2196 16.1731 32.684L11.0303 27.5412C10.4947 27.0056 10.4947 26.1373 11.0303 25.6017ZM35.0303 22.3983C35.5658 22.9339 36.4342 22.9339 36.9697 22.3983C37.5053 21.8627 37.5053 20.9944 36.9697 20.4588L31.8269 15.316C31.2913 14.7804 30.423 14.7804 29.8874 15.316L24.7445 20.4588C24.209 20.9944 24.209 21.8627 24.7445 22.3983C25.2801 22.9339 26.1485 22.9339 26.684 22.3983L29.4857 19.5966V31.7143C29.4857 32.4717 30.0997 33.0857 30.8571 33.0857C31.6146 33.0857 32.2286 32.4717 32.2286 31.7143V19.5966L35.0303 22.3983Z" fill="currentColor"></path>
   </symbol>

   <symbol xmlns="http://www.w3.org/2000/svg" id="credit-card" viewBox="0 0 24 24" fill="none">
     <rect width="24" height="24" rx="12" fill="currentColor"></rect>
     <path d="M5.71526 9.71429C5.71989 9.04861 5.74662 8.66785 5.90114 8.36459C6.06549 8.04203 6.32775 7.77977 6.65031 7.61542C7.01702 7.42857 7.49706 7.42857 8.45715 7.42857H15.5429C16.503 7.42857 16.983 7.42857 17.3497 7.61542C17.6723 7.77977 17.9345 8.04203 18.0989 8.36459C18.2534 8.66785 18.2801 9.04861 18.2848 9.71429H5.71526Z" fill="white"></path>
     <path fill-rule="evenodd" clip-rule="evenodd" d="M5.71429 10.8571V13.8286C5.71429 14.7887 5.71429 15.2687 5.90114 15.6354C6.06549 15.958 6.32775 16.2202 6.65031 16.3846C7.01702 16.5714 7.49706 16.5714 8.45715 16.5714H15.5429C16.503 16.5714 16.983 16.5714 17.3497 16.3846C17.6723 16.2202 17.9345 15.958 18.0989 15.6354C18.2857 15.2687 18.2857 14.7887 18.2857 13.8286V10.8571H5.71429ZM7.42858 14C7.42858 13.7338 7.42858 13.6006 7.47208 13.4956C7.53007 13.3556 7.64132 13.2444 7.78133 13.1864C7.88634 13.1429 8.01947 13.1429 8.28572 13.1429H8.85715C9.1234 13.1429 9.25653 13.1429 9.36154 13.1864C9.50156 13.2444 9.6128 13.3556 9.6708 13.4956C9.71429 13.6006 9.71429 13.7338 9.71429 14C9.71429 14.2663 9.71429 14.3994 9.6708 14.5044C9.6128 14.6444 9.50156 14.7557 9.36154 14.8136C9.25653 14.8571 9.1234 14.8571 8.85715 14.8571H8.28572C8.01947 14.8571 7.88634 14.8571 7.78133 14.8136C7.64132 14.7557 7.53007 14.6444 7.47208 14.5044C7.42858 14.3994 7.42858 14.2663 7.42858 14Z" fill="white"></path>
   </symbol>

   <symbol xmlns="http://www.w3.org/2000/svg" id="cross" viewBox="0 0 27 27" fill="none">
     <path d="M7 20L20 7M20 20L7 7" stroke="currentColor" stroke-width="1.995"/>
   </symbol>

   <symbol xmlns="http://www.w3.org/2000/svg" id="info-rounded" viewBox="0 0 27 27" fill="none">
     <path d="M12.6667 9V10.6667H14.3333V9H12.6667Z" fill="currentColor"/>
     <path fill-rule="evenodd" clip-rule="evenodd" d="M12.6667 12.6667V18.3333H14.3333V12.6667H12.6667ZM12.6667 9V10.6667H14.3333V9H12.6667Z" fill="currentColor"/>
     <path fill-rule="evenodd" clip-rule="evenodd" d="M13.5 23C18.7467 23 23 18.7467 23 13.5C23 8.25329 18.7467 4 13.5 4C8.25329 4 4 8.25329 4 13.5C4 18.7467 8.25329 23 13.5 23ZM13.5 21.3333C17.8262 21.3333 21.3333 17.8262 21.3333 13.5C21.3333 9.17377 17.8262 5.66667 13.5 5.66667C9.17377 5.66667 5.66667 9.17377 5.66667 13.5C5.66667 17.8262 9.17377 21.3333 13.5 21.3333ZM12.6667 12.6667V18.3333H14.3333V12.6667H12.6667ZM12.6667 9V10.6667H14.3333V9H12.6667Z" fill="currentColor"/>
   </symbol>

   <symbol xmlns="http://www.w3.org/2000/svg" id="plane" viewBox="0 0 24 24" fill="none">
     <path d="M2.66811 3.54169C2.66811 3.25002 2.66811 2.6667 3.70267 2.66669C5.03282 2.66667 19.8123 10.25 20.8468 11.125C21.6745 11.825 21.2888 12.5834 20.8454 12.875C19.8112 13.7498 4.89148 21.3288 3.70125 21.3334C2.66669 21.3333 2.66669 20.75 2.66669 20.4584L3.70229 14.0417C3.82021 13.3417 4.14581 13.1667 4.29386 13.1667L13.1615 12.2917C13.2601 12.2917 13.4571 12.2334 13.4571 12C13.4571 11.7667 13.2601 11.7084 13.1615 11.7084L4.29386 10.8334C4.14581 10.8334 3.82021 10.6584 3.70229 9.95835C3.35612 7.84327 2.66811 3.83335 2.66811 3.54169Z" fill="currentColor"/>
   </symbol>

   <symbol xmlns="http://www.w3.org/2000/svg" id="wallpaper" viewBox="0 0 27 27" fill="none">
     <path d="M19.6667 7.73214C19.6667 8.01322 19.4428 8.24107 19.1667 8.24107C18.8905 8.24107 18.6667 8.01322 18.6667 7.73214C18.6667 7.45107 18.8905 7.22321 19.1667 7.22321C19.4428 7.22321 19.6667 7.45107 19.6667 7.73214Z" fill="white"/>
     <path d="M9 20.625V20.9643C9 22.0886 9.89543 23 11 23H21C22.1046 23 23 22.0886 23 20.9643V19.2679M9 20.625V6.03571C9 4.91142 9.89543 4 11 4H21C22.1046 4 23 4.91142 23 6.03571V19.2679M9 20.625L11.8333 17.7411C12 17.5714 12.5 17.0625 13.1667 17.7411C13.7 18.2839 14.1111 18.7024 14.1667 18.7589C14.3333 18.9286 14.8333 19.4375 15.5 18.7589C16.0333 18.2161 17.5 16.497 18.1667 15.7054C18.3333 15.5357 18.8333 15.0268 19.5 15.7054C20.0333 16.2482 22.0556 18.3065 23 19.2679M6.66667 5.52679H5C4.44772 5.52679 4 5.9825 4 6.54464V20.7946C4 21.3568 4.44772 21.8125 5 21.8125H6.66667M19.6667 7.73214C19.6667 8.01322 19.4428 8.24107 19.1667 8.24107C18.8905 8.24107 18.6667 8.01322 18.6667 7.73214C18.6667 7.45107 18.8905 7.22321 19.1667 7.22321C19.4428 7.22321 19.6667 7.45107 19.6667 7.73214Z" stroke="currentColor" stroke-width="1.5" stroke-linecap="round"/>
   </symbol>

   <symbol xmlns="http://www.w3.org/2000/svg" id="report" viewBox="0 0 27 27" fill="none">
     <path
       d="M12.5833 14.8333C12.5833 15.2475 12.9191 15.5833 13.3333 15.5833C13.7475 15.5833 14.0833 15.2475 14.0833 14.8333H12.5833ZM14.0833 8.83333C14.0833 8.41912 13.7475 8.08333 13.3333 8.08333C12.9191 8.08333 12.5833 8.41912 12.5833 8.83333H14.0833ZM13.1667 17.6667V16.9167C12.7525 16.9167 12.4167 17.2525 12.4167 17.6667H13.1667ZM13.1667 18H12.4167C12.4167 18.4142 12.7525 18.75 13.1667 18.75V18ZM13.5 18V18.75C13.9142 18.75 14.25 18.4142 14.25 18H13.5ZM13.5 17.6667H14.25C14.25 17.2525 13.9142 16.9167 13.5 16.9167V17.6667ZM23.25 13.5C23.25 18.8848 18.8848 23.25 13.5 23.25V24.75C19.7132 24.75 24.75 19.7132 24.75 13.5H23.25ZM13.5 23.25C8.11522 23.25 3.75 18.8848 3.75 13.5H2.25C2.25 19.7132 7.2868 24.75 13.5 24.75V23.25ZM3.75 13.5C3.75 8.11522 8.11522 3.75 13.5 3.75V2.25C7.2868 2.25 2.25 7.2868 2.25 13.5H3.75ZM13.5 3.75C18.8848 3.75 23.25 8.11522 23.25 13.5H24.75C24.75 7.2868 19.7132 2.25 13.5 2.25V3.75ZM14.0833 14.8333V8.83333H12.5833V14.8333H14.0833ZM12.4167 17.6667V18H13.9167V17.6667H12.4167ZM13.1667 18.75H13.5V17.25H13.1667V18.75ZM14.25 18V17.6667H12.75V18H14.25ZM13.5 16.9167H13.1667V18.4167H13.5V16.9167Z"
       fill="currentColor" />
   </symbol>

   <symbol xmlns="http://www.w3.org/2000/svg" id="trends" viewBox="0 0 27 27">
     <path
       d="M8.01183 15.9673C7.71765 16.2589 7.71556 16.7338 8.00716 17.028C8.29876 17.3222 8.77363 17.3243 9.06781 17.0327L8.01183 15.9673ZM12.7434 12.3333L13.2714 11.8007C12.979 11.5109 12.5077 11.5109 12.2154 11.8007L12.7434 12.3333ZM16.2743 15.8333L15.7463 16.366C15.8891 16.5075 16.0826 16.5857 16.2835 16.5833C16.4844 16.5808 16.6759 16.4979 16.8152 16.353L16.2743 15.8333ZM23 8.83333H23.75C23.75 8.41912 23.4142 8.08333 23 8.08333V8.83333ZM18.6283 8.08333C18.2141 8.08333 17.8783 8.41912 17.8783 8.83333C17.8783 9.24755 18.2141 9.58333 18.6283 9.58333V8.08333ZM22.25 13.3333C22.25 13.7475 22.5858 14.0833 23 14.0833C23.4142 14.0833 23.75 13.7475 23.75 13.3333H22.25ZM18.7481 6.34027C19.0281 6.64554 19.5026 6.66604 19.8078 6.38607C20.1131 6.1061 20.1336 5.63167 19.8536 5.3264L18.7481 6.34027ZM23.187 17.2906C23.3475 16.9088 23.1681 16.4691 22.7862 16.3086C22.4044 16.1481 21.9647 16.3275 21.8042 16.7094L23.187 17.2906ZM9.06781 17.0327L13.2714 12.866L12.2154 11.8007L8.01183 15.9673L9.06781 17.0327ZM12.2154 12.866L15.7463 16.366L16.8023 15.3007L13.2714 11.8007L12.2154 12.866ZM16.8152 16.353L23.5408 9.35296L22.4592 8.31371L15.7335 15.3137L16.8152 16.353ZM23 8.08333H18.6283V9.58333H23V8.08333ZM22.25 8.83333V13.3333H23.75V8.83333H22.25ZM13.5841 22.25C8.6989 22.25 4.75 18.3263 4.75 13.5H3.25C3.25 19.1671 7.88296 23.75 13.5841 23.75V22.25ZM4.75 13.5C4.75 8.67372 8.6989 4.75 13.5841 4.75V3.25C7.88296 3.25 3.25 7.83287 3.25 13.5H4.75ZM13.5841 4.75C14.203 4.75 15.2337 4.8359 16.2595 5.094C17.3074 5.35767 18.2256 5.77055 18.7481 6.34027L19.8536 5.3264C19.031 4.42945 17.7634 3.92566 16.6255 3.63934C15.4654 3.34743 14.3103 3.25 13.5841 3.25V4.75ZM13.5841 23.75C15.8844 23.75 21.0086 22.4728 23.187 17.2906L21.8042 16.7094C19.9471 21.1272 15.5433 22.25 13.5841 22.25V23.75Z"
       fill="currentColor"/>
   </symbol>

   <symbol xmlns="http://www.w3.org/2000/svg" id="calendar" viewBox="0 0 28 27">
     <path
       fill="currentColor"
       d="M11.48 21.65a.75.75 0 1 0 0-1.5v1.5Zm8.31-9.7a.75.75 0 0 0 1.5 0h-1.5Zm3.53 12.58a.75.75 0 0 0 1.06-1.06l-1.06 1.06Zm-11.84-4.38H5.03v1.5h6.45v-1.5Zm-6.45 0c-.2 0-.52-.06-.77-.24-.2-.14-.4-.4-.4-.9h-1.5c0 1 .44 1.7 1.04 2.12.55.4 1.2.52 1.63.52v-1.5ZM3.86 6.95c0-.18.07-.5.24-.73.15-.2.4-.4.93-.4v-1.5a2.56 2.56 0 0 0-2.67 2.64h1.5Zm14.76-1.13c.2 0 .52.06.77.24.2.14.4.39.4.9h1.5c0-1-.44-1.7-1.03-2.13a2.9 2.9 0 0 0-1.64-.51v1.5ZM3.86 19v-8.77h-1.5V19h1.5Zm0-8.78V6.96h-1.5v3.27h1.5ZM19.8 6.96v3.26h1.5V6.96h-1.5Zm0 3.27v1.73h1.5v-1.74h-1.5Zm-16.68.75h17.43v-1.5H3.11v1.5Zm1.92-5.16h.69v-1.5h-.71v1.5Zm1.45-.75v-1.9h-1.5v1.9h1.5Zm-.75.75h.34v-1.5h-.36v1.5Zm.34 0h12.54v-1.5H6.07v1.5Zm-.75-2.65v1.9h1.5v-1.9h-1.5Zm13 1.9v-1.9h-1.5v1.9h1.5Zm-1.14-1.9v1.9h1.5v-1.9h-1.5Zm1.1 18.53a3.06 3.06 0 0 1-3.09-3.04h-1.5a4.56 4.56 0 0 0 4.58 4.54v-1.5Zm-3.09-3.04a3.06 3.06 0 0 1 3.08-3.03v-1.5a4.56 4.56 0 0 0-4.58 4.53h1.5Zm3.08-3.03a3.06 3.06 0 0 1 3.09 3.03h1.5a4.56 4.56 0 0 0-4.59-4.53v1.5Zm3.09 3.03a3 3 0 0 1-.83 2.08l1.09 1.03a4.5 4.5 0 0 0 1.24-3.1h-1.5Zm-.83 2.08a3.1 3.1 0 0 1-2.26.96v1.5a4.6 4.6 0 0 0 3.35-1.43l-1.1-1.03Zm3.85 2.73-2.78-2.75-1.06 1.07 2.78 2.74 1.06-1.06Zm-6.05-20.3c0 .32-.26.58-.58.58v-1.5a.92.92 0 0 0-.92.92h1.5ZM5.9 3.75a.58.58 0 0 1-.58-.58h1.5a.92.92 0 0 0-.92-.92v1.5Zm11.85 0a.58.58 0 0 1-.57-.58h1.5a.92.92 0 0 0-.93-.92v1.5ZM6.48 3.17c0 .32-.26.58-.58.58v-1.5a.92.92 0 0 0-.92.92h1.5Z"
     />
   </symbol>

   <symbol xmlns="http://www.w3.org/2000/svg" id="megaphone" viewBox="0 0 24 24" fill="none">
     <path
       d="M13 15V7M13 15L18.5039 18.1451C19.1705 18.526 20 18.0446 20 17.2768V14V8V4.72318C20 3.95536 19.1705 3.47399 18.5039 3.85494L13 7M13 15H10M13 7H7C4.79086 7 3 8.79086 3 11V11C3 13.2091 4.79086 15 7 15V15M7 15V19.5C7 20.3284 7.67157 21 8.5 21V21C9.32843 21 10 20.3284 10 19.5V15M7 15H10"
       stroke="currentColor"
       stroke-linecap="round"
       stroke-linejoin="round"
       stroke-width="1.5"
     />
   </symbol>

   <symbol xmlns="http://www.w3.org/2000/svg" id="gear" viewBox="0 0 24 24" fill="none">
     <path
       fill-rule="evenodd"
       d="M9.99996 2C9.44768 2 8.99996 2.44772 8.99996 3V4.58178C8.30471 4.86318 7.65844 5.23923 7.07704 5.69365L5.70573 4.90193C5.47605 4.76932 5.20309 4.73338 4.94691 4.80202C4.69073 4.87067 4.47232 5.03827 4.33971 5.26795L2.33971 8.73205C2.06357 9.21034 2.22744 9.82193 2.70573 10.0981L4.07654 10.8895C4.02603 11.2528 3.99997 11.6236 3.99997 12C3.99997 12.3764 4.02603 12.7471 4.07654 13.1105L2.70574 13.9019C2.47605 14.0345 2.30846 14.2529 2.23981 14.5091C2.17117 14.7653 2.2071 15.0382 2.33971 15.2679L4.33971 18.732C4.47232 18.9617 4.69074 19.1293 4.94692 19.198C5.2031 19.2666 5.47605 19.2307 5.70574 19.0981L7.07706 18.3063C7.65846 18.7607 8.30472 19.1368 8.99996 19.4182V21C8.99996 21.5523 9.44768 22 9.99996 22H14C14.5522 22 15 21.5523 15 21V19.4182C15.6952 19.1368 16.3415 18.7607 16.9229 18.3063L18.2942 19.0981C18.5239 19.2307 18.7968 19.2666 19.053 19.198C19.3092 19.1293 19.5276 18.9617 19.6602 18.7321L21.6602 15.268C21.7928 15.0383 21.8288 14.7653 21.7601 14.5091C21.6915 14.253 21.5239 14.0345 21.2942 13.9019L19.9234 13.1105C19.9739 12.7472 20 12.3764 20 12C20 11.6236 19.9739 11.2528 19.9234 10.8895L21.2942 10.0981C21.7725 9.82191 21.9364 9.21032 21.6602 8.73203L19.6602 5.26793C19.5276 5.03824 19.3092 4.87065 19.053 4.802C18.7968 4.73336 18.5239 4.76929 18.2942 4.9019L16.9229 5.69364C16.3415 5.23922 15.6952 4.86318 15 4.58178V3C15 2.44772 14.5522 2 14 2H9.99996ZM11 5.28986V4H13V5.28986C13 5.73228 13.2907 6.12211 13.7147 6.24831C14.6258 6.51947 15.4475 7.00198 16.1223 7.64029C16.4436 7.94424 16.9264 8.00099 17.3095 7.77984L18.4282 7.13395L19.4282 8.866L18.3109 9.51107C17.9281 9.73205 17.7358 10.1781 17.8379 10.6081C17.9437 11.0538 18 11.5197 18 12C18 12.4803 17.9437 12.9462 17.8379 13.3919C17.7358 13.8219 17.9281 14.2679 18.3109 14.4889L19.4282 15.134L18.4282 16.866L17.3094 16.2201C16.9264 15.999 16.4436 16.0557 16.1222 16.3597C15.4475 16.998 14.6258 17.4805 13.7147 17.7516C13.2907 17.8778 13 18.2677 13 18.7101V20H11V18.7101C11 18.2677 10.7092 17.8778 10.2852 17.7516C9.37409 17.4805 8.55246 16.998 7.87767 16.3597C7.55635 16.0557 7.07352 15.999 6.69048 16.2201L5.57176 16.866L4.57176 15.134L5.68905 14.4889C6.0718 14.2679 6.26409 13.8219 6.16201 13.3919C6.05621 12.9462 5.99997 12.4803 5.99997 12C5.99997 11.5197 6.0562 11.0538 6.16201 10.6081C6.26409 10.1781 6.07179 9.73207 5.68905 9.51109L4.57176 8.86603L5.57176 7.13398L6.69046 7.77986C7.07351 8.00101 7.55633 7.94425 7.87766 7.6403C8.55245 7.00199 9.37409 6.51948 10.2852 6.24831C10.7092 6.12211 11 5.73228 11 5.28986ZM9.99998 12C9.99998 10.8954 10.8954 10 12 10C13.1046 10 14 10.8954 14 12C14 13.1046 13.1046 14 12 14C10.8954 14 9.99998 13.1046 9.99998 12ZM12 8C9.79084 8 7.99998 9.79086 7.99998 12C7.99998 14.2091 9.79084 16 12 16C14.2091 16 16 14.2091 16 12C16 9.79086 14.2091 8 12 8Z"
       fill="currentColor"
     />
   </symbol>

   <symbol xmlns="http://www.w3.org/2000/svg" id="globe" viewBox="0 0 27 27" fill="none">
     <path
       d="M13.5 24C14.8333 23.3333 17.5 20.3 17.5 13.5C17.5 6.7 14.8333 3.66667 13.5 3M13.5 24C12.1667 23.3333 9.5 20.3 9.5 13.5C9.5 6.7 12.1667 3.66667 13.5 3M13.5 24C17.8827 24 21.6382 21.3149 23.2112 17.5M13.5 24C9.11734 24 5.36182 21.3149 3.78878 17.5M13.5 3C17.8827 3 21.6382 5.68511 23.2112 9.5M13.5 3C9.11734 3 5.36182 5.68511 3.78878 9.5M23.2112 17.5C23.7196 16.2672 24 14.9163 24 13.5C24 12.3801 23.8247 11.3012 23.5 10.2892C23.414 10.0213 23.3176 9.75805 23.2112 9.5M23.2112 17.5H3.78878M3.78878 17.5C3.28042 16.2672 3 14.9163 3 13.5C3 12.3801 3.17532 11.3012 3.5 10.2892C3.58595 10.0213 3.68237 9.75805 3.78878 9.5M23.2112 9.5H3.78878"
       stroke="currentColor" stroke-width="1.5"
     />
   </symbol>

   <symbol xmlns="http://www.w3.org/2000/svg" id="bell" viewBox="0 0 27 27" fill="none">
     <path d="M11.9455 23.0293C11.9455 23.5028 12.8338 24 13.3273 24C13.8208 24 14.7091 23.5028 14.7091 23.0293H11.9455Z" fill="currentColor"/>
     <path d="M12.3403 4.93159C12.653 4.90692 12.9817 4.89402 13.3273 4.89402C13.6728 4.89402 14.0016 4.90692 14.3143 4.93159V3.94701C14.3143 3.63134 14.1169 3 13.3273 3C12.5377 3 12.3403 3.63134 12.3403 3.94701V4.93159Z" fill="currentColor"/>
     <path d="M12.3403 4.93159C12.653 4.90692 12.9817 4.89402 13.3273 4.89402C13.6728 4.89402 14.0016 4.90692 14.3143 4.93159M12.3403 4.93159C7.29338 5.32963 6.41819 8.79259 6.41819 10.5761C6.41819 12.4701 6.41819 16.5423 6.41819 17.6787C6.41819 18.8151 4.49351 19.9041 4 20.3776H23C22.5065 19.9041 20.2364 18.8151 20.2364 17.6787C20.2364 16.5423 20.2364 12.4701 20.2364 10.5761C20.2364 8.79259 19.3612 5.32963 14.3143 4.93159M12.3403 4.93159V3.94701C12.3403 3.63134 12.5377 3 13.3273 3C14.1169 3 14.3143 3.63134 14.3143 3.94701V4.93159M11.9455 23.0293C11.9455 23.5028 12.8338 24 13.3273 24C13.8208 24 14.7091 23.5028 14.7091 23.0293H11.9455Z" stroke="currentColor" stroke-width="1.5" stroke-linecap="round" stroke-linejoin="round"/>
   </symbol>

   <symbol xmlns="http://www.w3.org/2000/svg" id="mask" viewBox="0 0 27 27" fill="none">
     <path
       d="M10.1111 15.3421C10.6049 16.0789 12.0741 17.5526 14 17.5526C15.9259 17.5526 17.2716 16.0789 17.7037 15.3421M11.4074 10.9211C11.0988 10.4298 10.5945 9.81579 9.92593 9.81579C9.25738 9.81579 8.87654 10.1842 8.62963 10.5526M16.5926 10.9211C16.9012 10.4298 17.4055 9.81579 18.0741 9.81579C18.7426 9.81579 19.1235 10.1842 19.3704 10.5526M14 24C17.3333 24 24 21.2368 24 10.1842V7.23684C24 5.82456 23.1481 3 19.7407 3C16.3333 3 14.4938 3 14 3C13.5062 3 11.6667 3 8.25926 3C4.85185 3 4 5.82456 4 7.23684V10.1842C4 21.2368 10.6667 24 14 24Z"
       stroke="currentColor" stroke-width="1.5" stroke-linecap="round"/>
   </symbol>
</svg>
